<svg xmlns="http://www.w3.org/2000/svg" viewBox="0 0 512 512" role="img" aria-labelledby="title desc">
  <title id="title">Meri Dukaan</title>
  <desc id="desc">Modern white storefront icon on an indigo to purple gradient background.</desc>
  <defs>
    <linearGradient id="bg" x1="72" y1="72" x2="440" y2="440" gradientUnits="userSpaceOnUse">
      <stop offset="0" stop-color="#4F46E5"/>
      <stop offset="1" stop-color="#7C3AED"/>
    </linearGradient>
  </defs>
  <rect width="512" height="512" rx="96" fill="url(#bg)"/>

  <!-- Storefront roof / awning -->
  <path
    d="M124 140c0-13.255 10.745-24 24-24h216c13.255 0 24 10.745 24 24v68c0 11.046-8.954 20-20 20h-4c-15.464 0-28-12.536-28-28 0 15.464-12.536 28-28 28h-4c-15.464 0-28-12.536-28-28 0 15.464-12.536 28-28 28h-4c-15.464 0-28-12.536-28-28 0 15.464-12.536 28-28 28h-4c-15.464 0-28-12.536-28-28 0 15.464-12.536 28-28 28h-4c-11.046 0-20-8.954-20-20z"
    fill="#FFFFFF"
  />

  <!-- Shop body -->
  <rect x="132" y="196" width="248" height="210" rx="24" fill="#FFFFFF"/>

  <!-- Clean awning folds -->
  <path d="M148 116h48v92h-4c-15.464 0-28-12.536-28-28v-44h-16z" fill="#EDE9FE"/>
  <path d="M220 116h48v92h-4c-15.464 0-28-12.536-28-28v-44h-16z" fill="#EDE9FE"/>
  <path d="M292 116h48v92h-4c-15.464 0-28-12.536-28-28v-44h-16z" fill="#EDE9FE"/>

  <!-- Entrance and display windows -->
  <rect x="164" y="254" width="62" height="74" rx="12" fill="#4F46E5"/>
  <rect x="286" y="254" width="62" height="74" rx="12" fill="#7C3AED"/>
  <rect x="224" y="294" width="64" height="112" rx="14" fill="#4F46E5"/>
  <circle cx="274" cy="350" r="5" fill="#FFFFFF"/>

  <!-- Counter line -->
  <rect x="154" y="238" width="204" height="12" rx="6" fill="#DDD6FE"/>
</svg>